<?xml version="1.0" standalone="no"?>
<!DOCTYPE svg PUBLIC "-//W3C//DTD SVG 20010904//EN"
 "http://www.w3.org/TR/2001/REC-SVG-20010904/DTD/svg10.dtd">
<svg version="1.0" xmlns="http://www.w3.org/2000/svg"
 width="260.000000pt" height="260.000000pt" viewBox="0 0 260.000000 260.000000"
 preserveAspectRatio="xMidYMid meet">
<metadata>
Created by potrace 1.11, written by Peter Selinger 2001-2013
</metadata>
<g transform="translate(0.000000,260.000000) scale(0.100000,-0.100000)"
fill="#000000" stroke="none">
<path d="M537 2564 c-3 -3 -3 -12 0 -20 7 -19 -17 -14 -34 6 -11 13 -12 12 -7
-4 6 -16 4 -17 -14 -7 -12 7 -22 10 -23 9 0 -2 -2 -13 -3 -25 -5 -40 -15 -37
-11 3 2 33 1 36 -10 20 -18 -24 -20 -24 -43 -3 -16 14 -25 16 -40 8 -11 -6
-23 -7 -27 -3 -5 4 -5 2 -2 -4 4 -7 0 -15 -9 -18 -9 -4 -14 -9 -11 -13 4 -3
13 0 22 7 8 7 15 8 15 2 0 -16 -31 -23 -46 -11 -15 12 -9 33 7 24 5 -4 9 -1 9
4 0 16 -16 13 -30 -4 -9 -11 -10 -18 -1 -29 8 -10 8 -16 -3 -25 -10 -8 -16 -9
-21 -1 -4 6 -3 9 2 8 4 -2 8 2 8 7 0 6 -2 9 -5 8 -3 -1 -14 -4 -25 -8 -16 -4
-15 -3 3 6 12 7 22 16 22 21 0 5 -9 4 -20 -2 -10 -6 -23 -10 -27 -9 -20 3 -27
-2 -13 -12 13 -9 13 -10 -2 -6 -9 3 -19 -1 -22 -9 -3 -8 -11 -14 -18 -13 -10
0 -10 2 0 6 6 2 12 9 12 14 0 6 -4 8 -9 4 -5 -3 -12 -1 -15 4 -4 5 -1 13 5 17
8 5 9 3 4 -6 -5 -9 -4 -11 3 -6 18 11 14 25 -6 23 -20 -1 -25 -39 -9 -65 5 -7
2 -14 -7 -18 -9 -3 -13 -10 -10 -15 3 -5 11 -6 17 -3 7 4 8 3 4 -1 -11 -13
-38 -15 -31 -3 4 6 1 9 -7 6 -15 -5 -20 -30 -7 -38 4 -3 -3 -12 -15 -19 -20
-13 -21 -13 -8 2 11 14 11 17 0 17 -11 0 -11 3 1 11 13 9 13 10 0 7 -8 -3 -14
-15 -15 -29 0 -13 -4 -29 -8 -36 -4 -6 -3 -14 3 -18 5 -3 10 -3 10 1 0 3 7 1
15 -6 9 -7 13 -20 10 -30 -3 -9 4 -28 15 -43 16 -19 17 -27 8 -33 -7 -4 -10
-4 -6 1 4 4 3 14 -3 22 -9 10 -15 11 -28 1 -13 -10 -14 -10 -3 2 16 19 15 30
-3 30 -9 0 -12 -6 -8 -17 4 -10 2 -14 -5 -9 -6 3 -14 1 -18 -5 -4 -7 -3 -10 2
-6 5 3 23 -6 39 -20 21 -18 23 -22 7 -13 -16 8 -27 8 -40 0 -14 -10 -15 -11 0
-6 9 2 24 -1 34 -9 15 -11 16 -15 5 -29 -14 -17 -32 -13 -30 7 0 9 2 8 6 -1 5
-13 23 -7 23 8 0 10 -19 8 -39 -4 -10 -7 -4 -15 25 -33 32 -19 34 -22 14 -19
-14 3 -25 5 -25 6 0 1 -8 3 -18 5 -9 2 -14 -1 -11 -7 3 -5 8 -7 11 -4 3 3 18
-3 33 -14 20 -14 30 -16 38 -8 7 7 12 9 12 6 0 -3 -17 -18 -37 -34 -20 -15
-33 -23 -30 -17 4 7 4 14 -1 17 -4 2 -9 -4 -9 -15 -2 -23 6 -24 36 -3 23 17
23 17 8 -7 -10 -15 -13 -29 -8 -38 11 -17 3 -43 -11 -35 -6 4 -5 10 3 15 10 6
10 9 2 9 -6 0 -10 9 -8 19 3 14 -1 18 -12 14 -8 -3 -11 -9 -6 -12 4 -3 9 -18
10 -33 2 -21 -2 -26 -15 -21 -9 3 -15 4 -12 2 41 -35 54 -43 41 -26 -7 9 -9
17 -3 17 18 0 21 -28 4 -42 -13 -11 -14 -11 -7 1 5 10 4 12 -3 7 -7 -4 -12 -2
-12 3 0 6 -5 11 -11 11 -8 0 -7 -5 2 -16 16 -19 19 -74 5 -74 -7 0 -8 -3 -1
-8 12 -9 17 -75 5 -67 -5 3 -12 0 -16 -7 -4 -7 -4 -10 1 -6 4 4 14 3 21 -3 9
-8 12 -4 10 16 -2 14 1 28 6 31 6 4 5 10 -3 16 -11 8 -11 9 1 5 17 -4 20 -24
9 -48 -5 -10 -2 -25 8 -40 13 -18 13 -21 3 -13 -27 20 -50 24 -43 8 3 -7 11
-14 18 -14 18 0 26 -25 12 -39 -9 -10 -8 -16 7 -26 18 -13 18 -14 -2 -12 -11
0 -19 4 -16 8 9 15 -14 18 -27 3 -10 -12 -10 -15 1 -12 7 2 15 -3 18 -11 3 -9
0 -11 -7 -6 -9 5 -9 2 0 -13 7 -11 18 -18 26 -15 7 3 10 9 7 14 -3 5 -10 6
-16 3 -7 -4 -8 -2 -4 5 6 8 12 9 20 2 7 -6 17 -7 22 -3 5 4 -1 -3 -14 -16 -20
-19 -27 -21 -41 -10 -9 7 -13 8 -9 4 4 -5 2 -16 -5 -24 -10 -13 -9 -14 3 -7 8
5 24 10 37 11 20 2 21 1 8 -12 -8 -8 -12 -21 -9 -29 4 -8 1 -15 -4 -15 -6 0
-9 9 -7 20 4 21 -9 27 -20 10 -3 -5 -2 -10 2 -10 5 0 9 -13 9 -29 1 -23 -2
-28 -15 -24 -17 7 -16 5 13 -17 13 -10 17 -10 12 -2 -4 6 -3 12 2 12 6 0 13
-8 16 -17 4 -10 4 -14 0 -10 -4 4 -13 2 -21 -4 -10 -9 -13 -8 -13 0 0 7 -5 9
-11 6 -6 -5 -3 -13 10 -22 12 -8 21 -19 21 -26 0 -8 -3 -8 -12 1 -7 7 -16 12
-22 12 -5 0 -1 -6 9 -14 11 -8 23 -12 27 -10 5 3 8 0 8 -6 0 -6 4 -9 8 -6 4 2
8 -4 8 -14 0 -11 -2 -17 -5 -15 -2 3 -11 -1 -19 -8 -13 -10 -14 -9 -7 2 6 10
4 12 -5 6 -9 -5 -11 -4 -6 4 4 6 12 9 17 6 5 -4 9 -1 9 4 0 16 -27 13 -33 -3
-8 -20 16 -38 39 -30 13 4 15 3 6 -3 -10 -8 -8 -15 8 -36 15 -19 17 -27 8 -33
-7 -4 -10 -4 -6 1 4 4 3 14 -3 22 -9 10 -15 11 -28 1 -13 -10 -14 -10 -3 2 16
19 15 30 -3 30 -9 0 -12 -6 -8 -17 4 -10 2 -14 -5 -9 -6 3 -14 1 -18 -5 -4 -7
-3 -10 2 -6 5 3 23 -6 39 -20 21 -18 23 -22 7 -13 -16 8 -27 8 -40 0 -14 -10
-15 -11 0 -6 9 2 24 -1 34 -9 15 -11 16 -15 5 -29 -14 -17 -32 -13 -30 7 0 9
2 8 6 -1 5 -13 23 -7 23 8 0 10 -19 8 -39 -4 -10 -7 -4 -15 25 -33 32 -19 34
-22 14 -19 -14 3 -25 5 -25 6 0 1 -8 3 -18 5 -9 2 -14 -1 -11 -7 3 -5 8 -7 11
-4 3 3 18 -3 33 -14 20 -14 30 -16 38 -8 7 7 12 9 12 6 0 -3 -17 -18 -37 -34
-20 -15 -33 -23 -30 -17 4 7 4 14 -1 17 -4 2 -9 -4 -9 -15 -2 -23 6 -24 36 -3
23 17 23 17 8 -7 -10 -15 -13 -29 -8 -38 11 -17 3 -43 -11 -35 -6 4 -5 10 3
15 10 6 10 9 2 9 -6 0 -10 9 -8 19 3 14 -1 18 -12 14 -8 -3 -11 -9 -6 -12 4
-3 9 -18 10 -33 2 -21 -2 -26 -15 -21 -9 3 -15 4 -12 2 41 -35 54 -43 41 -27
-7 10 -9 18 -3 18 18 0 21 -28 4 -42 -13 -11 -14 -11 -7 1 5 10 4 12 -3 7 -7
-4 -12 -2 -12 3 0 6 -5 11 -11 11 -8 0 -7 -5 2 -16 16 -19 19 -74 5 -74 -7 0
-8 -3 -1 -8 12 -9 17 -75 5 -67 -5 3 -12 0 -16 -7 -4 -7 -4 -10 1 -6 4 4 14 3
21 -3 9 -8 12 -4 10 16 -2 14 1 28 6 31 6 4 5 10 -3 16 -11 8 -11 9 1 5 17 -4
20 -24 9 -48 -5 -10 -2 -25 8 -40 13 -18 13 -21 3 -13 -27 20 -50 24 -43 8 3
-7 11 -14 18 -14 18 0 26 -25 12 -39 -9 -10 -8 -16 7 -26 18 -13 18 -14 -2
-12 -11 0 -19 4 -16 8 9 15 -14 18 -27 3 -10 -12 -10 -15 1 -12 7 2 15 -3 18
-11 3 -9 0 -11 -7 -6 -9 5 -9 2 0 -13 7 -11 18 -18 26 -15 7 3 10 9 7 14 -3 5
-10 6 -16 3 -7 -5 -8 -2 -3 5 5 9 10 10 18 2 7 -7 15 -7 26 0 9 7 3 0 -13 -15
-23 -22 -31 -25 -45 -14 -9 7 -13 8 -9 4 4 -5 2 -16 -5 -24 -10 -13 -9 -14 3
-7 8 5 24 10 37 11 20 2 21 1 8 -12 -8 -8 -12 -21 -9 -29 4 -8 1 -15 -4 -15
-6 0 -9 9 -7 20 4 21 -9 27 -20 10 -3 -5 -2 -10 2 -10 5 0 9 -13 9 -29 1 -23
-2 -28 -15 -24 -17 7 -16 5 13 -17 13 -10 17 -10 12 -2 -4 6 -3 12 2 12 6 0
13 -8 16 -17 4 -10 4 -14 0 -10 -4 4 -13 2 -21 -4 -10 -9 -13 -8 -13 0 0 7 -5
9 -11 6 -6 -5 -3 -13 10 -22 12 -8 21 -19 21 -26 0 -8 -3 -8 -12 1 -7 7 -16
12 -22 12 -5 0 -1 -6 9 -14 11 -8 23 -12 27 -10 5 3 8 0 8 -6 0 -6 4 -9 8 -6
4 2 8 -4 8 -14 0 -11 -2 -17 -5 -15 -2 3 -11 -1 -19 -8 -13 -10 -14 -9 -7 2 6
10 4 12 -5 6 -9 -5 -11 -4 -6 4 4 6 12 9 17 6 5 -4 9 -1 9 4 0 16 -27 13 -33
-3 -7 -19 16 -38 36 -30 8 3 18 1 22 -5 4 -7 0 -8 -11 -4 -14 5 -15 3 -4 -18
7 -13 9 -21 5 -17 -5 4 -15 2 -23 -5 -13 -10 -14 -9 -7 2 5 9 4 12 -3 7 -11
-7 -8 -44 4 -55 4 -3 4 2 1 12 -4 10 -3 16 2 12 5 -3 11 1 14 7 2 7 4 1 3 -14
0 -14 -4 -24 -9 -21 -4 2 -6 -5 -4 -17 2 -12 9 -25 16 -29 10 -6 9 -10 -4 -14
-10 -5 -14 -3 -9 5 4 6 3 8 -3 5 -6 -4 -10 3 -9 15 0 12 -6 23 -14 25 -9 3
-11 1 -5 -4 23 -19 13 -44 -11 -25 -5 4 1 -3 14 -14 22 -19 23 -23 8 -31 -15
-8 -14 -11 7 -20 18 -9 24 -8 24 2 0 8 -7 11 -16 7 -17 -6 -16 -4 13 18 13 10
17 10 12 3 -4 -8 -2 -13 6 -13 10 0 10 -2 0 -9 -8 -4 -13 -11 -13 -15 3 -19 0
-27 -8 -21 -5 3 -13 0 -17 -7 -4 -7 -4 -10 1 -6 4 4 14 0 22 -8 8 -8 18 -12
23 -9 5 3 11 1 15 -5 3 -5 -1 -10 -9 -10 -9 0 -16 -4 -16 -8 0 -5 7 -9 15 -9
14 0 19 10 16 29 0 4 6 5 14 2 8 -4 15 -1 15 6 0 6 -4 8 -10 5 -5 -3 -10 -1
-10 4 0 17 18 13 29 -6 6 -10 11 -14 11 -9 0 5 6 3 14 -3 11 -10 20 -10 37 -1
14 8 19 8 15 1 -4 -6 -3 -11 1 -11 5 0 16 -12 26 -27 13 -21 17 -23 15 -9 -2
10 3 21 10 23 6 3 10 -1 9 -9 -2 -7 -2 -9 1 -5 2 4 10 0 18 -10 10 -13 12 -13
9 -3 -4 11 1 16 15 17 12 1 18 -2 14 -9 -4 -7 -2 -8 4 -4 7 4 12 14 12 22 0 8
-4 12 -10 9 -22 -13 -49 -13 -54 1 -4 11 -2 12 12 5 11 -6 24 -6 35 0 13 8 19
6 23 -5 3 -9 10 -16 15 -16 4 0 6 7 3 15 -4 8 -1 15 6 15 6 0 8 -5 5 -11 -4
-6 0 -9 11 -7 13 2 18 -2 16 -14 -2 -11 4 -16 17 -15 11 0 17 5 15 9 -3 4 5 7
17 5 13 -2 26 -12 30 -23 6 -16 8 -16 8 -2 1 26 21 32 37 12 14 -18 15 -18 5
2 -6 12 -7 24 -4 28 3 3 2 6 -3 6 -6 0 -16 -6 -23 -12 -10 -11 -11 -10 -6 4
11 28 34 30 41 2 7 -26 16 -25 20 1 1 8 -3 15 -9 15 -5 0 -8 3 -5 6 12 12 49
-17 44 -34 -3 -9 -1 -24 5 -32 8 -12 9 -10 4 8 -7 23 11 28 28 7 5 -6 7 -3 3
7 -3 10 0 20 6 24 7 4 8 3 4 -4 -4 -7 -1 -12 8 -12 19 0 21 11 4 28 -9 9 -9
12 0 12 7 0 12 -5 12 -11 0 -5 4 -7 10 -4 20 12 9 -14 -11 -29 -22 -15 -22
-15 -1 -13 11 0 18 5 16 9 -9 14 37 2 47 -13 8 -11 9 -10 7 5 -2 10 3 21 10
23 6 3 10 -1 9 -9 -2 -7 -2 -9 1 -5 2 4 10 0 18 -10 10 -13 12 -13 9 -3 -4 11
1 16 15 17 12 1 18 -2 14 -9 -4 -7 -2 -8 4 -4 7 4 12 14 12 22 0 8 -4 12 -10
9 -22 -13 -49 -13 -54 1 -4 11 -2 12 12 5 11 -6 24 -6 35 0 13 8 19 6 23 -5 3
-9 10 -16 15 -16 4 0 6 7 3 15 -4 8 -1 15 6 15 6 0 8 -5 5 -11 -4 -6 0 -9 11
-7 13 2 18 -2 16 -14 -2 -11 4 -16 17 -15 11 0 17 5 15 9 -3 4 5 7 17 5 13 -2
26 -12 30 -23 6 -16 8 -16 8 -2 1 26 21 32 37 12 14 -18 15 -18 5 2 -6 12 -7
24 -4 28 3 3 2 6 -3 6 -6 0 -16 -6 -23 -12 -10 -11 -11 -10 -6 4 11 28 34 30
41 2 7 -26 16 -25 20 1 1 8 -3 15 -9 15 -5 0 -8 3 -5 6 4 3 15 1 27 -5 15 -8
19 -19 16 -41 -2 -17 0 -28 5 -25 5 3 7 12 3 21 -6 16 16 16 30 -1 5 -6 7 -3
3 7 -3 10 0 20 6 24 7 4 8 3 4 -4 -4 -7 -1 -12 8 -12 19 0 21 11 4 28 -9 9 -9
12 0 12 7 0 12 -5 12 -11 0 -5 5 -7 10 -4 20 12 9 -14 -11 -29 -22 -15 -22
-15 -1 -13 11 0 18 5 16 9 -9 14 37 2 47 -13 8 -11 9 -10 7 5 -2 10 3 21 10
23 6 3 10 -1 9 -9 -2 -7 -2 -9 1 -5 2 4 10 0 18 -10 10 -13 12 -13 9 -3 -4 11
1 16 15 17 12 1 18 -2 14 -9 -4 -7 -2 -8 4 -4 7 4 12 14 12 22 0 8 -4 12 -10
9 -22 -13 -49 -13 -54 1 -4 11 -2 12 12 5 11 -6 24 -6 35 0 13 8 19 6 23 -5 3
-9 10 -16 15 -16 4 0 6 7 3 15 -4 8 -1 15 6 15 6 0 8 -5 5 -11 -4 -6 0 -9 11
-7 13 2 18 -2 16 -14 -2 -11 4 -16 17 -15 11 0 17 5 15 9 -3 4 5 7 17 5 13 -2
25 -9 27 -16 3 -8 8 -6 17 6 13 17 14 17 30 -2 16 -20 16 -20 6 1 -6 12 -7 24
-4 28 3 3 2 6 -3 6 -6 0 -16 -6 -23 -12 -10 -11 -11 -10 -6 4 11 28 34 30 41
2 7 -26 16 -25 20 1 1 8 -3 15 -9 15 -5 0 -8 3 -5 6 4 3 16 0 28 -6 14 -8 19
-17 15 -30 -3 -10 -1 -21 4 -25 7 -3 8 0 5 10 -7 17 15 17 29 0 5 -6 7 -3 3 7
-3 10 0 20 6 24 7 4 8 3 4 -4 -4 -7 -1 -12 8 -12 19 0 21 11 4 28 -9 9 -9 12
0 12 7 0 12 -5 12 -11 0 -5 5 -7 10 -4 20 12 9 -14 -11 -29 -22 -15 -22 -15
-1 -13 11 0 18 5 16 9 -9 14 37 2 47 -13 8 -11 9 -10 7 5 -2 10 3 21 10 23 6
3 10 -1 9 -9 -2 -7 -2 -9 1 -5 2 4 10 0 18 -10 10 -13 12 -13 9 -3 -4 11 1 16
15 17 12 1 18 -2 14 -9 -4 -7 -2 -8 4 -4 7 4 12 14 12 22 0 8 -4 12 -10 9 -22
-13 -49 -13 -54 1 -4 11 -2 12 12 5 11 -6 24 -6 35 0 13 8 19 6 23 -5 3 -9 10
-16 15 -16 4 0 6 7 3 15 -4 8 -1 15 6 15 6 0 8 -5 5 -11 -4 -6 0 -9 11 -7 13
2 18 -2 16 -14 -2 -11 4 -16 17 -15 11 0 17 5 15 9 -3 4 5 7 17 5 13 -2 25 -9
27 -16 3 -8 8 -6 17 6 13 17 14 17 30 -2 16 -20 16 -20 6 1 -6 12 -7 24 -4 28
3 3 2 6 -3 6 -6 0 -16 -6 -23 -12 -10 -11 -11 -10 -6 4 11 28 34 30 41 2 7
-26 16 -25 20 1 1 8 -3 15 -9 15 -5 0 -8 3 -5 6 4 3 16 0 28 -6 14 -8 19 -17
15 -30 -7 -21 10 -36 21 -19 4 8 3 9 -4 5 -7 -4 -12 -2 -12 3 0 6 4 11 10 11
5 0 7 7 4 15 -4 8 -1 15 6 15 6 0 8 -5 5 -11 -4 -6 0 -9 11 -7 13 2 18 -2 16
-14 -2 -11 4 -16 17 -15 11 0 17 5 15 9 -3 4 5 7 17 5 13 -2 25 -9 27 -16 3
-8 8 -6 17 6 13 17 14 17 30 -2 16 -20 16 -20 6 1 -6 12 -7 25 -3 29 4 4 -4 2
-17 -5 -15 -8 -21 -8 -17 -1 4 6 3 11 -3 11 -5 0 -12 -5 -14 -10 -3 -6 -4 -5
-3 2 2 7 13 12 25 11 11 -2 21 2 21 7 0 6 5 10 10 10 6 0 9 -3 9 -7 -4 -23 2
-43 10 -38 6 3 8 14 6 25 -3 17 -1 18 21 8 26 -12 30 -23 14 -33 -5 -3 -10 1
-10 9 0 22 -15 20 -17 -2 -1 -11 6 -18 18 -19 10 -1 19 3 19 8 0 6 4 8 9 4 5
-3 13 0 17 6 4 8 3 9 -4 5 -7 -4 -12 -2 -12 3 0 20 27 11 38 -12 10 -20 11
-18 7 13 -2 19 -2 29 1 22 3 -6 10 -10 14 -7 5 3 12 1 15 -5 4 -6 3 -9 -2 -8
-9 3 -13 -5 -13 -24 0 -7 7 -2 16 10 8 12 20 19 26 16 6 -4 5 -10 -3 -16 -11
-8 -11 -9 -1 -6 8 2 13 7 12 12 -2 12 20 25 39 22 9 -2 25 6 35 17 16 17 16
19 3 14 -11 -4 -20 1 -27 13 -6 11 -7 20 -3 20 4 0 -2 7 -13 15 -16 13 -16 14
-1 9 13 -5 16 -2 11 12 -4 14 -3 15 4 6 7 -11 10 -9 14 6 3 11 2 25 -2 32 -9
14 -1 60 11 60 5 0 6 -7 2 -16 -4 -12 -2 -15 8 -12 10 3 14 25 15 80 1 41 5
81 9 88 5 8 4 11 -3 6 -10 -6 -82 59 -82 74 0 4 8 14 17 21 16 13 17 12 5 -3
-12 -14 -11 -21 5 -42 20 -28 55 -43 46 -20 -3 8 -9 11 -14 8 -5 -3 -6 2 -3
10 3 9 9 14 13 12 4 -3 7 4 8 14 1 11 -7 22 -17 25 -21 7 -51 76 -32 74 19 -3
29 3 29 16 0 8 -4 15 -9 15 -4 0 -8 -4 -8 -10 0 -5 -4 -10 -10 -10 -18 0 -10
18 10 25 11 4 18 11 14 16 -3 6 -12 5 -21 -3 -15 -12 -15 -11 -2 10 8 12 17
22 22 22 4 0 5 -5 1 -12 -4 -7 -3 -8 4 -4 19 12 8 -62 -11 -77 -16 -11 -16
-14 -3 -32 12 -15 16 -16 16 -5 1 10 4 9 11 -5 l9 -20 -3 20 c-2 11 -9 19 -15
17 -13 -2 -16 11 -5 21 3 4 16 -1 27 -10 20 -18 21 -17 5 2 -11 14 -14 39 -13
85 3 86 2 82 16 74 7 -4 8 -3 4 5 -4 6 -11 9 -16 6 -9 -5 -80 62 -80 75 0 4 8
14 18 21 15 13 16 12 4 -3 -12 -14 -11 -21 5 -42 20 -28 55 -43 46 -20 -3 8
-9 11 -14 8 -5 -3 -6 2 -3 10 3 9 9 14 13 12 4 -3 7 4 8 14 1 11 -7 22 -17 25
-21 7 -51 76 -32 74 19 -3 29 3 29 16 0 8 -4 15 -9 15 -4 0 -8 -4 -8 -10 0 -5
-4 -10 -10 -10 -18 0 -10 18 10 25 11 4 18 11 14 16 -3 6 -12 5 -21 -3 -15
-12 -15 -11 -2 10 8 12 17 22 22 22 4 0 5 -5 1 -12 -4 -7 -3 -8 4 -4 19 12 8
-62 -11 -77 -16 -11 -16 -14 -3 -32 12 -15 16 -16 16 -5 1 10 4 9 11 -5 l9
-20 -3 20 c-2 11 -9 19 -15 17 -7 -1 -12 2 -12 6 0 17 14 21 29 9 13 -10 14
-10 5 3 -12 17 -11 141 1 160 5 8 4 11 -3 6 -10 -6 -82 59 -82 74 0 4 8 14 18
21 15 13 16 12 4 -3 -12 -14 -11 -21 5 -42 20 -28 55 -43 46 -20 -3 8 -9 11
-14 8 -5 -3 -6 2 -3 10 3 9 9 14 13 12 4 -3 7 4 8 14 1 11 -7 22 -17 25 -21 7
-51 76 -32 74 19 -3 29 3 29 16 0 8 -4 15 -9 15 -4 0 -8 -4 -8 -10 0 -5 -4
-10 -10 -10 -18 0 -10 18 10 25 11 4 18 11 14 16 -3 6 -12 5 -21 -3 -15 -12
-15 -11 -2 10 8 12 17 22 22 22 4 0 5 -5 1 -12 -4 -7 -3 -8 4 -4 19 12 8 -62
-11 -77 -16 -11 -16 -14 -3 -32 12 -15 16 -16 16 -5 1 10 4 9 11 -5 l9 -20 -3
20 c-2 11 -9 19 -15 17 -14 -2 -16 14 -3 23 5 3 12 1 16 -5 3 -5 12 -10 18
-10 7 0 5 4 -3 10 -12 7 -15 25 -14 78 1 39 5 76 9 83 5 7 4 10 -3 5 -10 -6
-82 59 -82 74 0 4 8 14 18 21 15 13 16 12 4 -3 -12 -14 -11 -21 5 -42 20 -28
55 -43 46 -20 -3 8 -9 11 -14 8 -5 -3 -6 2 -3 10 3 9 9 14 13 12 4 -3 7 4 8
14 1 11 -7 22 -17 25 -21 7 -51 76 -32 74 19 -3 29 3 29 16 0 8 -4 15 -9 15
-4 0 -8 -4 -8 -10 0 -5 -4 -10 -10 -10 -18 0 -10 18 10 25 11 4 18 11 14 16
-3 6 -12 5 -21 -3 -15 -12 -15 -11 -2 10 8 12 17 22 22 22 4 0 5 -5 1 -12 -4
-7 -3 -8 4 -4 19 12 8 -62 -11 -77 -16 -11 -16 -14 -3 -32 12 -15 16 -16 16
-5 1 10 4 9 11 -5 l9 -20 -3 20 c-2 11 -9 19 -15 17 -7 -1 -12 2 -12 6 0 17
14 21 29 9 13 -10 14 -10 5 3 -5 8 -9 44 -8 80 3 86 2 82 16 74 7 -4 8 -3 4 5
-4 6 -11 9 -16 6 -9 -5 -80 62 -80 75 0 4 8 14 18 21 15 13 16 12 4 -3 -12
-14 -11 -21 5 -42 20 -28 55 -43 46 -20 -3 8 -9 11 -14 8 -5 -3 -6 2 -3 10 3
9 9 14 13 12 4 -3 7 4 8 14 1 11 -7 22 -17 25 -21 7 -51 76 -32 74 19 -3 29 3
29 16 0 8 -4 15 -9 15 -4 0 -8 -4 -8 -10 0 -5 -4 -10 -10 -10 -18 0 -10 18 10
25 11 4 18 11 14 16 -3 6 -12 5 -21 -3 -15 -12 -15 -11 -2 10 8 12 17 22 22
22 4 0 5 -5 1 -12 -4 -7 -3 -8 4 -4 19 12 8 -62 -11 -77 -16 -11 -16 -14 -3
-32 12 -15 16 -16 16 -5 1 10 4 9 11 -5 l9 -20 -3 20 c-2 11 -9 19 -15 17 -7
-1 -12 2 -12 6 0 17 14 21 29 9 13 -10 14 -10 5 3 -12 17 -11 141 1 160 5 8 4
11 -3 6 -10 -6 -82 59 -82 74 0 4 8 14 18 21 15 13 16 12 4 -3 -12 -14 -11
-21 5 -42 20 -28 55 -43 46 -20 -3 8 -9 11 -14 8 -5 -3 -6 2 -3 10 3 9 9 14
13 12 4 -3 7 4 8 14 1 11 -7 22 -17 25 -21 7 -51 76 -32 74 19 -3 29 3 29 16
0 8 -4 15 -9 15 -4 0 -8 -4 -8 -10 0 -5 -4 -10 -10 -10 -18 0 -11 18 9 25 13
4 18 12 14 22 -4 10 -2 14 5 10 16 -11 8 -65 -11 -80 -16 -11 -16 -14 -3 -32
12 -15 16 -16 16 -5 1 10 4 9 11 -5 l9 -20 -3 20 c-2 11 -9 19 -15 17 -13 -2
-16 11 -5 21 3 4 16 -1 27 -10 21 -18 21 -18 5 2 -9 11 -15 34 -13 52 2 33
-17 60 -36 48 -6 -3 -8 -10 -5 -15 3 -5 1 -11 -4 -14 -5 -4 -8 2 -6 11 2 10 4
21 4 26 1 4 10 7 22 7 23 0 22 21 -2 28 -11 3 -11 2 1 -7 9 -7 10 -11 3 -11
-20 0 -23 16 -7 36 9 10 13 13 9 7 -3 -7 -2 -13 3 -13 6 0 13 7 16 16 3 8 2
13 -3 10 -10 -7 -23 19 -14 28 4 3 13 0 22 -7 14 -10 14 -10 4 4 -7 9 -10 19
-6 22 3 4 1 7 -5 7 -7 0 -12 -4 -12 -9 0 -5 -8 -8 -17 -7 -18 3 -21 26 -9 57
5 12 0 16 -23 16 -25 0 -28 -3 -20 -14 10 -11 15 -11 28 -1 14 11 14 11 3 -4
-13 -17 -42 -14 -42 4 0 5 -6 6 -12 2 -7 -4 -4 2 6 14 13 15 23 19 30 13 7 -6
17 -6 26 1 12 8 12 9 -2 4 -10 -3 -22 2 -27 12 -6 10 -11 12 -11 5 0 -7 -5
-13 -11 -13 -5 0 -7 6 -3 13 4 6 4 9 -1 5 -4 -4 -16 -3 -27 3 -18 9 -18 8 -8
-10 6 -12 13 -21 16 -21 3 0 2 5 -2 12 -5 7 -3 8 5 3 10 -6 10 -10 1 -19 -9
-8 -14 -8 -17 2 -3 6 -10 9 -15 6 -7 -4 -8 -2 -4 5 4 6 0 14 -8 17 -9 3 -13
10 -10 15 9 15 -3 10 -17 -8 -8 -10 -9 -14 -2 -10 16 10 24 -5 12 -23 -6 -11
-9 -11 -9 -2 0 9 -5 10 -19 2 -23 -12 -54 -3 -48 15 3 6 -4 17 -15 24 -15 9
-18 9 -13 0 5 -7 3 -10 -6 -7 -8 3 -13 11 -11 18 3 11 0 11 -12 1 -15 -13 -12
-36 3 -27 4 3 8 -5 8 -16 2 -20 1 -20 -12 -2 -10 15 -16 16 -26 7 -14 -14 -39
-6 -39 12 0 7 -7 15 -14 18 -16 7 -12 -16 8 -43 8 -10 5 -10 -13 3 -15 10 -30
13 -40 8 -24 -11 -44 -8 -48 9 -4 12 -3 12 5 1 6 -8 12 -9 16 -3 3 5 17 8 31
6 20 -2 24 1 16 10 -6 7 -7 17 -3 21 4 5 1 5 -6 1 -7 -4 -10 -11 -7 -16 8 -12
-58 -7 -67 5 -5 7 -8 6 -8 -1 0 -14 -55 -11 -74 5 -11 9 -16 10 -16 2 0 -6 5
-11 11 -11 5 0 7 -5 3 -12 -5 -7 -3 -8 7 -3 12 7 12 6 1 -7 -14 -17 -42 -14
-42 4 0 6 8 4 18 -3 16 -13 8 0 -27 41 -2 3 -1 -3 2 -12 5 -13 0 -17 -21 -15
-15 1 -30 6 -33 10 -3 5 -9 2 -12 -6 -4 -11 0 -15 14 -12 10 2 19 -2 19 -8 0
-8 3 -8 9 2 5 8 11 9 15 3 8 -14 -18 -22 -35 -11 -9 5 -23 2 -38 -8 -24 -15
-24 -15 -7 8 21 30 20 38 -3 36 -11 0 -17 -5 -15 -9 3 -5 10 -5 17 -1 6 3 -2
-10 -17 -30 -16 -20 -31 -37 -34 -37 -3 0 -1 5 6 12 8 8 7 17 -7 37 -10 14
-18 29 -17 33 0 3 -2 9 -6 13 -3 4 -5 -1 -3 -12 2 -10 4 -18 5 -18 1 0 3 -11
6 -25 3 -20 0 -18 -19 14 -18 29 -26 35 -33 25 -12 -20 -14 -39 -4 -39 15 0
21 18 8 23 -9 4 -10 6 -1 6 20 2 24 -16 7 -30 -14 -11 -18 -10 -29 5 -8 10
-11 25 -9 34 5 15 4 14 -6 0 -8 -13 -8 -24 0 -40 9 -16 5 -14 -13 7 -14 16
-23 34 -20 39 4 5 1 6 -6 2 -6 -4 -8 -12 -5 -18 5 -7 1 -9 -9 -5 -11 4 -17 1
-17 -8 0 -18 11 -19 30 -2 12 10 12 9 2 -4 -10 -13 -9 -19 1 -28 8 -6 18 -7
22 -3 5 4 5 1 1 -6 -6 -9 -14 -7 -33 8 -21 16 -28 18 -36 8 -6 -9 -7 -7 -3 6
8 23 -10 47 -30 39 -16 -6 -19 -33 -3 -33 5 0 8 4 4 9 -3 5 0 13 6 17 8 5 9 3
4 -6 -6 -9 -4 -11 6 -5 11 7 12 6 2 -7 -7 -8 -11 -17 -8 -19 2 -3 -4 -5 -15
-5 -10 0 -16 4 -14 8 3 4 0 8 -6 8 -6 0 -9 3 -6 8 2 4 -2 16 -10 27 -8 10 -14
14 -14 9 0 -6 5 -15 12 -22 9 -9 9 -12 1 -12 -7 0 -18 9 -26 21 -9 13 -17 16
-22 10 -3 -6 -1 -11 6 -11 8 0 9 -3 0 -13 -6 -8 -8 -17 -4 -21 4 -4 0 -4 -10
0 -9 3 -17 10 -17 16 0 5 6 6 13 2 7 -5 7 -1 -3 12 -22 29 -24 30 -17 13 4
-13 -1 -16 -24 -15 -16 0 -29 4 -29 9 0 4 -4 5 -10 2 -17 -11 -11 -24 10 -20
11 2 20 -1 20 -7 0 -5 -7 -8 -15 -4 -8 3 -21 -1 -29 -9 -13 -13 -14 -12 -12 8
1 13 6 29 11 37 7 12 6 13 -7 3 -8 -7 -19 -9 -24 -5 -4 4 -3 0 4 -9 11 -14 9
-21 -10 -41 -13 -13 -20 -19 -16 -14 4 5 3 15 -3 22 -7 8 -6 14 2 20 7 4 9 3
5 -4 -3 -6 -2 -13 3 -16 5 -3 11 0 14 7 3 8 -4 19 -15 26 -15 9 -18 9 -13 0 5
-7 3 -10 -6 -7 -8 3 -13 11 -11 18 3 11 0 11 -12 1 -15 -13 -12 -36 3 -27 4 3
8 -5 8 -16 2 -20 1 -20 -12 -2 -10 15 -16 16 -26 7 -14 -14 -39 -6 -39 12 0 7
-7 15 -14 18 -16 7 -12 -16 8 -43 8 -10 5 -10 -13 3 -15 10 -30 13 -40 8 -24
-11 -44 -8 -48 9 -4 12 -3 12 5 1 6 -8 12 -9 16 -3 3 5 17 8 31 6 20 -2 24 1
16 10 -6 7 -7 17 -3 21 4 5 1 5 -6 1 -7 -4 -10 -11 -7 -16 8 -12 -58 -7 -67 5
-5 7 -8 6 -8 -1 0 -14 -55 -11 -74 5 -11 9 -16 10 -16 2 0 -6 5 -11 11 -11 5
0 7 -5 3 -12 -5 -7 -3 -8 7 -3 12 7 12 6 1 -7 -14 -17 -42 -14 -42 4 0 6 8 4
18 -3 16 -13 8 0 -27 41 -2 3 -1 -3 2 -12 5 -13 0 -17 -21 -15 -15 1 -30 6
-33 10 -3 5 -9 2 -12 -6 -4 -11 0 -15 14 -12 10 2 19 -2 19 -8 0 -8 3 -8 9 2
5 8 11 9 15 3 8 -14 -18 -22 -35 -11 -9 5 -23 2 -38 -8 -24 -15 -24 -15 -7 8
21 30 20 38 -3 36 -11 0 -17 -5 -15 -9 3 -5 10 -5 17 -1 6 3 -2 -10 -17 -30
-16 -20 -31 -37 -34 -37 -3 0 -1 5 6 12 8 8 7 17 -7 37 -10 14 -18 29 -17 33
0 3 -2 9 -6 13 -3 4 -5 -1 -3 -12 2 -10 4 -18 5 -18 1 0 3 -11 6 -25 3 -20 0
-18 -19 14 -18 29 -26 35 -33 25 -12 -20 -14 -39 -4 -39 15 0 21 18 8 23 -9 4
-10 6 -1 6 20 2 24 -16 7 -30 -14 -11 -18 -10 -29 5 -8 10 -11 25 -9 34 5 15
4 14 -6 0 -8 -13 -8 -24 0 -40 9 -16 5 -14 -13 7 -14 16 -23 34 -20 39 4 5 1
6 -6 2 -6 -4 -8 -12 -5 -18 5 -7 1 -9 -9 -5 -11 4 -17 1 -17 -8 0 -18 11 -19
30 -2 12 10 12 9 2 -4 -10 -13 -9 -19 1 -28 8 -6 18 -7 22 -3 5 4 5 1 1 -5 -5
-10 -15 -7 -39 10 -18 12 -34 23 -36 24 -2 1 4 15 13 30 17 28 17 28 -2 7 -17
-20 -20 -20 -30 -5 -10 14 -11 14 -5 -3 5 -15 3 -17 -8 -10 -20 12 -40 14 -33
3 3 -5 0 -9 -5 -9 -10 0 -15 14 -12 33 1 9 -4 9 -12 1z m-149 -26 c16 -16 15
-25 -3 -32 -8 -3 -22 2 -30 11 -13 13 -14 17 -3 24 17 12 22 11 36 -3z m107
-26 c3 -9 3 -13 -1 -9 -4 4 -14 1 -23 -6 -14 -10 -14 -10 -4 4 10 12 10 18 0
28 -9 10 -9 11 5 6 9 -4 19 -14 23 -23z m118 15 c4 3 7 1 7 -6 0 -6 -6 -11
-12 -10 -27 3 -39 -1 -32 -12 4 -8 0 -8 -15 0 -28 16 -46 5 -29 -17 12 -15 11
-16 -5 -3 -9 8 -15 16 -12 19 3 3 0 11 -5 17 -8 9 -4 12 12 11 13 0 26 -5 31
-11 4 -6 11 -3 18 8 8 13 14 15 23 8 7 -6 16 -8 19 -4z m-173 -3 c0 -8 -33
-34 -43 -34 -7 0 -4 5 6 11 9 6 15 14 13 18 -3 4 1 8 9 8 8 0 15 -2 15 -3z
m647 -19 c2 -17 0 -18 -10 -5 -17 21 -36 23 -43 5 -4 -8 -10 -15 -15 -15 -5 0
-4 8 3 19 16 26 64 23 65 -4z m348 15 c3 -5 1 -10 -4 -10 -6 0 -11 5 -11 10 0
6 2 10 4 10 3 0 8 -4 11 -10z m78 -22 c-8 -14 -19 -8 -20 12 -1 16 1 17 12 7
7 -6 11 -15 8 -19z m534 7 c2 -17 0 -18 -10 -5 -17 21 -36 23 -43 5 -4 -8 -10
-15 -15 -15 -5 0 -4 8 3 19 16 26 64 23 65 -4z m230 10 c0 -8 -4 -12 -9 -9 -5
3 -6 10 -3 15 9 13 12 11 12 -6z m-1487 -15 c0 -5 -5 -10 -11 -10 -5 0 -7 5
-4 10 3 6 8 10 11 10 2 0 4 -4 4 -10z m480 0 c0 -5 -5 -10 -11 -10 -5 0 -7 5
-4 10 3 6 8 10 11 10 2 0 4 -4 4 -10z m480 0 c0 -5 -5 -10 -11 -10 -5 0 -7 5
-4 10 3 6 8 10 11 10 2 0 4 -4 4 -10z m480 0 c0 -5 -5 -10 -11 -10 -5 0 -7 5
-4 10 3 6 8 10 11 10 2 0 4 -4 4 -10z m-1263 -15 c0 -8 -4 -12 -9 -9 -5 3 -6
10 -3 15 9 13 12 11 12 -6z m423 11 c0 -2 -8 -10 -17 -17 -16 -13 -17 -12 -4
4 13 16 21 21 21 13z m21 -19 c-10 -9 -11 -8 -5 6 3 10 9 15 12 12 3 -3 0 -11
-7 -18z m36 8 c0 -8 -4 -12 -9 -9 -5 3 -6 10 -3 15 9 13 12 11 12 -6z m480 0
c0 -8 -4 -12 -9 -9 -5 3 -6 10 -3 15 9 13 12 11 12 -6z m-743 -7 c-3 -4 -11
-5 -19 -1 -21 7 -19 12 4 10 11 0 18 -5 15 -9z m960 0 c-3 -4 -11 -5 -19 -1
-21 7 -19 12 4 10 11 0 18 -5 15 -9z m146 8 c0 -2 -7 -7 -16 -10 -8 -3 -12 -2
-9 4 6 10 25 14 25 6z m185 -54 c-3 -3 -11 0 -18 7 -9 10 -8 11 6 5 10 -3 15
-9 12 -12z m34 -28 c5 3 8 -2 7 -11 -2 -9 -8 -18 -15 -19 -6 -1 -7 0 -1 3 6 3
3 12 -8 21 -10 10 -12 13 -5 9 6 -5 16 -6 22 -3z m-2394 -42 c-12 -8 -13 -27
-2 -38 4 -4 7 -12 7 -18 0 -6 -7 0 -16 12 -10 15 -22 21 -33 18 -9 -4 -5 3 9
14 14 11 30 20 35 20 6 0 6 -3 0 -8z m-5 -222 c0 -5 -5 -10 -11 -10 -5 0 -7 5
-4 10 3 6 8 10 11 10 2 0 4 -4 4 -10z m2424 -9 c7 -10 -18 -34 -27 -25 -7 8 3
34 13 34 5 0 11 -4 14 -9z m-24 -90 c0 -6 -4 -12 -8 -15 -5 -3 -9 1 -9 9 0 8
4 15 9 15 4 0 8 -4 8 -9z m28 -31 c1 -26 -2 -29 -17 -20 -10 5 -21 6 -25 3 -3
-3 -6 -1 -6 5 0 6 9 13 19 17 13 4 18 12 14 22 -4 10 -2 14 4 10 5 -3 10 -20
11 -37z m-2414 -48 c3 -5 -1 -9 -9 -9 -8 0 -12 4 -9 9 3 4 7 8 9 8 2 0 6 -4 9
-8z m-24 -72 c-19 -12 -19 -32 0 -47 13 -10 12 -12 -5 -10 -15 1 -21 8 -21 26
0 24 25 55 36 45 2 -3 -2 -9 -10 -14z m2434 -79 c7 -10 -18 -34 -27 -25 -7 8
3 34 13 34 5 0 11 -4 14 -9z m-2411 -56 c4 -8 3 -16 -1 -19 -4 -3 -9 4 -9 15
-2 23 3 25 10 4z m2387 -34 c0 -6 -4 -12 -8 -15 -5 -3 -9 1 -9 9 0 8 4 15 9
15 4 0 8 -4 8 -9z m28 -31 c1 -26 -2 -29 -17 -20 -10 5 -21 6 -25 3 -3 -3 -6
-1 -6 5 0 6 9 13 19 17 13 4 18 12 14 22 -4 10 -2 14 4 10 5 -3 10 -20 11 -37z
m-2428 -30 c0 -5 -5 -10 -11 -10 -5 0 -7 5 -4 10 3 6 8 10 11 10 2 0 4 -4 4
-10z m20 -104 c0 -2 -8 -10 -17 -17 -16 -13 -17 -12 -4 4 13 16 21 21 21 13z
m-5 -46 c-3 -5 -12 -10 -18 -10 -7 0 -6 4 3 10 19 12 23 12 15 0z m-35 -20 c0
-5 -2 -10 -4 -10 -3 0 -8 5 -11 10 -3 6 -1 10 4 10 6 0 11 -4 11 -10z m2444 1
c7 -10 -18 -34 -27 -25 -7 8 3 34 13 34 5 0 11 -4 14 -9z m-2410 -9 c3 -5 -1
-9 -9 -9 -8 0 -12 4 -9 9 3 4 7 8 9 8 2 0 6 -4 9 -8z m-14 -64 c0 -14 -15 -16
-27 -3 -10 11 -9 13 7 12 11 -1 20 -5 20 -9z m2400 -17 c0 -6 -4 -12 -8 -15
-5 -3 -9 1 -9 9 0 8 4 15 9 15 4 0 8 -4 8 -9z m28 -31 c1 -26 -2 -29 -17 -20
-10 5 -21 6 -25 3 -3 -3 -6 -1 -6 5 0 6 9 13 19 17 13 4 18 12 14 22 -4 10 -2
14 4 10 5 -3 10 -20 11 -37z m-2428 -190 c0 -5 -5 -10 -11 -10 -5 0 -7 5 -4
10 3 6 8 10 11 10 2 0 4 -4 4 -10z m2424 -9 c7 -10 -18 -34 -27 -25 -7 8 3 34
13 34 5 0 11 -4 14 -9z m-24 -90 c0 -6 -4 -12 -8 -15 -5 -3 -9 1 -9 9 0 8 4
15 9 15 4 0 8 -4 8 -9z m28 -31 c1 -26 -2 -29 -17 -20 -10 5 -21 6 -25 3 -3
-3 -6 -1 -6 5 0 6 9 13 19 17 13 4 18 12 14 22 -4 10 -2 14 4 10 5 -3 10 -20
11 -37z m-2414 -48 c3 -5 -1 -9 -9 -9 -8 0 -12 4 -9 9 3 4 7 8 9 8 2 0 6 -4 9
-8z m-24 -72 c-19 -12 -19 -32 0 -47 13 -10 12 -12 -5 -10 -15 1 -21 8 -21 26
0 24 25 55 36 45 2 -3 -2 -9 -10 -14z m2434 -79 c7 -10 -18 -34 -27 -25 -7 8
3 34 13 34 5 0 11 -4 14 -9z m-2411 -56 c4 -8 3 -16 -1 -19 -4 -3 -9 4 -9 15
-2 23 3 25 10 4z m2387 -34 c0 -6 -4 -12 -8 -15 -5 -3 -9 1 -9 9 0 8 4 15 9
15 4 0 8 -4 8 -9z m28 -31 c1 -26 -2 -29 -17 -20 -10 5 -21 6 -25 3 -3 -3 -6
-1 -6 5 0 6 9 13 19 17 13 4 18 12 14 22 -4 10 -2 14 4 10 5 -3 10 -20 11 -37z
m-2428 -30 c0 -5 -5 -10 -11 -10 -5 0 -7 5 -4 10 3 6 8 10 11 10 2 0 4 -4 4
-10z m20 -104 c0 -2 -8 -10 -17 -17 -16 -13 -17 -12 -4 4 13 16 21 21 21 13z
m-5 -46 c-3 -5 -12 -10 -18 -10 -7 0 -6 4 3 10 19 12 23 12 15 0z m-35 -20 c0
-5 -2 -10 -4 -10 -3 0 -8 5 -11 10 -3 6 -1 10 4 10 6 0 11 -4 11 -10z m2444 1
c7 -10 -18 -34 -27 -25 -7 8 3 34 13 34 5 0 11 -4 14 -9z m-2410 -9 c3 -5 -1
-9 -9 -9 -8 0 -12 4 -9 9 3 4 7 8 9 8 2 0 6 -4 9 -8z m-14 -64 c0 -14 -15 -16
-27 -3 -10 11 -9 13 7 12 11 -1 20 -5 20 -9z m2400 -17 c0 -6 -4 -12 -8 -15
-5 -3 -9 1 -9 9 0 8 4 15 9 15 4 0 8 -4 8 -9z m26 -71 c0 -61 -2 -68 -17 -60
-9 5 -19 6 -23 3 -3 -3 -6 -1 -6 5 0 6 9 14 20 17 11 4 18 11 14 16 -3 6 -12
5 -22 -3 -16 -12 -16 -11 -2 7 8 11 20 23 25 27 9 7 -7 12 -27 9 -17 -2 -7 18
11 24 14 4 18 12 14 23 -4 10 -2 14 3 9 5 -5 9 -39 10 -77z m-2412 -128 c3 -5
-1 -9 -9 -9 -8 0 -15 4 -15 9 0 4 4 8 9 8 6 0 12 -4 15 -8z m21 -81 c1 -12 -3
-17 -12 -14 -9 4 -10 9 -3 18 5 6 8 15 5 18 -3 4 -2 5 2 2 4 -3 7 -14 8 -24z
m2360 -49 c-1 -1 -12 -4 -24 -7 -17 -3 -19 -1 -12 13 10 21 3 44 -11 36 -7 -5
-8 -2 -3 6 5 9 14 4 30 -16 13 -16 22 -30 20 -32z m-99 12 c1 -9 0 -13 -4 -10
-3 4 -7 14 -8 22 -1 9 0 13 4 10 3 -4 7 -14 8 -22z m54 11 c0 -2 -9 -3 -19 -2
-11 0 -18 5 -15 9 4 6 34 0 34 -7z m-2320 -15 c0 -7 -13 -7 -38 -1 -2 1 -1 5
3 11 6 10 35 2 35 -10z m146 5 c-1 -8 -5 -17 -8 -21 -5 -4 -4 16 1 34 3 9 9
-1 7 -13z m481 0 c0 -8 -4 -15 -9 -15 -10 0 -11 14 -1 23 9 10 10 9 10 -8z
m480 0 c0 -8 -4 -15 -9 -15 -10 0 -11 14 -1 23 9 10 10 9 10 -8z m480 0 c0 -8
-4 -15 -9 -15 -10 0 -11 14 -1 23 9 10 10 9 10 -8z m-1183 -3 c2 -4 -5 -9 -17
-9 -17 -2 -19 0 -7 7 18 12 18 12 24 2z m480 0 c2 -4 -5 -9 -17 -9 -17 -2 -19
0 -7 7 18 12 18 12 24 2z m480 0 c2 -4 -5 -9 -17 -9 -17 -2 -19 0 -7 7 18 12
18 12 24 2z m480 0 c2 -4 -5 -9 -17 -9 -17 -2 -19 0 -7 7 18 12 18 12 24 2z
m226 -2 c0 -5 -4 -10 -10 -10 -5 0 -10 5 -10 10 0 6 5 10 10 10 6 0 10 -4 10
-10z m154 -8 c2 -4 -4 -8 -14 -8 -10 0 -16 4 -14 8 3 4 9 8 14 8 5 0 11 -4 14
-8z m83 -5 c0 -8 -6 -14 -14 -14 -17 0 -17 14 0 20 6 3 12 6 13 6 0 1 1 -5 1
-12z m-1779 -17 c-7 -11 -15 -15 -17 -9 -2 6 3 15 10 20 20 12 21 11 7 -11z
m480 0 c-7 -11 -15 -15 -17 -9 -2 6 3 15 10 20 20 12 21 11 7 -11z m480 0 c-7
-11 -15 -15 -17 -9 -2 6 3 15 10 20 20 12 21 11 7 -11z m-1330 -4 c-7 -8 -15
-12 -17 -11 -5 6 10 25 20 25 5 0 4 -6 -3 -14z m192 4 c0 -4 -6 -12 -13 -18
-10 -8 -13 -6 -13 7 0 10 6 18 13 18 7 0 13 -4 13 -7z m46 -10 c0 -12 -4 -16
-9 -11 -5 5 -6 14 -3 20 10 15 12 14 12 -9z m242 6 c-7 -8 -15 -12 -17 -11 -5
6 10 25 20 25 5 0 4 -6 -3 -14z m192 4 c0 -4 -6 -12 -13 -18 -10 -8 -13 -6
-13 7 0 10 6 18 13 18 7 0 13 -4 13 -7z m46 -10 c0 -12 -4 -16 -9 -11 -5 5 -6
14 -3 20 10 15 12 14 12 -9z m242 6 c-7 -8 -15 -12 -17 -11 -5 6 10 25 20 25
5 0 4 -6 -3 -14z m192 4 c0 -4 -6 -12 -13 -18 -10 -8 -13 -6 -13 7 0 10 6 18
13 18 7 0 13 -4 13 -7z m46 -10 c0 -12 -4 -16 -9 -11 -5 5 -6 14 -3 20 10 15
12 14 12 -9z m242 6 c-7 -8 -15 -12 -17 -11 -5 6 10 25 20 25 5 0 4 -6 -3 -14z
m192 4 c0 -4 -6 -12 -13 -18 -10 -8 -13 -6 -13 7 0 10 6 18 13 18 7 0 13 -4
13 -7z m46 -10 c0 -12 -4 -16 -9 -11 -5 5 -6 14 -3 20 10 15 12 14 12 -9z
m194 10 c0 -4 -6 -12 -13 -18 -10 -8 -13 -6 -13 7 0 10 6 18 13 18 7 0 13 -4
13 -7z"/>
<path d="M366 2531 c-4 -5 -2 -12 3 -15 5 -4 12 -2 15 3 4 5 2 12 -3 15 -5 4
-12 2 -15 -3z"/>
<path d="M1060 2560 c-9 -6 -10 -10 -3 -10 6 0 15 5 18 10 8 12 4 12 -15 0z"/>
<path d="M1600 2560 c-9 -6 -10 -10 -3 -10 6 0 15 5 18 10 8 12 4 12 -15 0z"/>
<path d="M2020 2560 c-9 -6 -10 -10 -3 -10 6 0 15 5 18 10 8 12 4 12 -15 0z"/>
<path d="M2320 2555 c-7 -8 -17 -12 -24 -8 -8 5 -8 3 1 -8 6 -8 12 -18 12 -24
1 -9 7 -11 29 -6 4 0 8 10 9 21 1 11 -2 18 -8 15 -5 -4 -9 -14 -9 -23 0 -14
-2 -15 -10 -2 -6 10 -4 20 7 32 9 10 14 18 11 18 -3 0 -11 -7 -18 -15z"/>
<path d="M1232 2547 c-6 -7 -7 -18 -3 -26 6 -9 11 -10 15 -2 4 6 1 11 -6 11
-10 0 -9 3 2 10 8 5 12 12 9 15 -4 3 -11 0 -17 -8z"/>
<path d="M2192 2547 c-6 -7 -7 -18 -3 -26 6 -9 11 -10 15 -2 4 6 1 11 -6 11
-10 0 -9 3 2 10 8 5 12 12 9 15 -4 3 -11 0 -17 -8z"/>
<path d="M192 2530 c-26 -25 -30 -40 -4 -18 9 9 23 14 30 12 7 -1 8 0 2 3 -5
2 -8 9 -4 14 9 15 -1 10 -24 -11z"/>
<path d="M236 2541 c9 -9 34 -9 34 -1 0 5 -9 8 -20 7 -10 -1 -17 -3 -14 -6z"/>
<path d="M827 2529 c5 -20 18 -25 27 -11 2 4 -4 13 -14 19 -15 10 -17 9 -13
-8z"/>
<path d="M1787 2529 c5 -20 18 -25 27 -11 2 4 -4 13 -14 19 -15 10 -17 9 -13
-8z"/>
<path d="M94 2519 c-4 -7 -3 -9 4 -5 5 3 13 0 15 -6 4 -9 6 -10 6 -1 1 17 -16
25 -25 12z"/>
<path d="M75 2491 c-3 -5 0 -13 6 -17 7 -4 9 -3 5 4 -3 5 0 13 6 15 9 4 10 6
1 6 -6 1 -14 -3 -18 -8z"/>
<path d="M105 2470 c-5 -16 -10 -18 -25 -10 -13 7 -21 7 -25 0 -4 -6 -3 -10 2
-9 19 3 33 -2 33 -12 0 -5 -4 -8 -9 -5 -5 3 -15 -2 -22 -12 -13 -15 -12 -16 4
-3 9 7 17 10 17 5 0 -5 7 0 16 11 8 11 17 19 19 18 12 -7 25 -2 20 7 -4 6 -12
7 -18 3 -7 -4 -6 0 2 10 8 10 9 17 3 17 -6 0 -14 -9 -17 -20z"/>
<path d="M2513 2458 c-16 -26 -12 -38 8 -25 11 7 15 13 9 15 -6 2 -8 8 -4 13
3 5 3 9 0 9 -3 0 -8 -6 -13 -12z"/>
<path d="M70 2311 c0 -7 -5 -9 -12 -5 -7 4 -10 3 -5 -1 4 -5 -1 -18 -10 -29
-18 -21 -18 -21 5 -2 12 11 22 15 22 11 0 -5 5 -4 12 3 9 9 9 15 0 24 -9 9
-12 9 -12 -1z"/>
<path d="M63 2080 c6 -10 15 -16 19 -14 14 9 9 22 -11 27 -17 4 -18 2 -8 -13z"/>
<path d="M36 1853 c-6 -14 -5 -15 5 -6 7 7 10 15 7 18 -3 3 -9 -2 -12 -12z"/>
<path d="M50 1684 c-9 -10 -9 -14 -1 -14 6 0 11 6 11 13 0 9 3 8 9 -2 5 -8 11
-9 15 -3 10 16 -21 22 -34 6z"/>
<path d="M36 1313 c-6 -14 -5 -15 5 -6 7 7 10 15 7 18 -3 3 -9 -2 -12 -12z"/>
<path d="M63 1120 c6 -10 15 -16 19 -14 14 9 9 22 -11 27 -17 4 -18 2 -8 -13z"/>
<path d="M36 893 c-6 -14 -5 -15 5 -6 7 7 10 15 7 18 -3 3 -9 -2 -12 -12z"/>
<path d="M50 724 c-9 -10 -9 -14 -1 -14 6 0 11 6 11 13 0 9 3 8 9 -2 5 -8 11
-9 15 -3 10 16 -21 22 -34 6z"/>
<path d="M36 353 c-6 -14 -5 -15 5 -6 7 7 10 15 7 18 -3 3 -9 -2 -12 -12z"/>
<path d="M55 341 c-3 -6 4 -9 15 -8 11 1 20 5 20 9 0 11 -28 10 -35 -1z"/>
<path d="M2518 253 c6 -2 10 -9 6 -14 -3 -5 0 -9 6 -9 7 0 4 -12 -7 -27 -21
-30 -24 -55 -8 -50 6 1 9 10 9 20 -1 12 3 16 14 12 12 -4 12 -3 3 9 -8 10 -9
16 -1 21 13 8 -6 45 -23 44 -9 0 -9 -2 1 -6z"/>
<path d="M160 90 c-9 -5 -9 -13 -3 -25 9 -15 11 -16 16 -1 9 22 28 20 21 -1
-5 -16 -4 -16 6 0 17 27 -11 45 -40 27z"/>
<path d="M221 68 c-7 -13 -10 -20 -6 -16 5 4 14 3 22 -4 10 -8 17 -8 26 1 9
10 8 11 -8 5 -17 -7 -18 -5 -8 8 12 14 8 28 -6 28 -4 0 -12 -10 -20 -22z"/>
<path d="M613 68 c-2 -18 0 -20 7 -8 12 18 13 30 2 30 -4 0 -9 -10 -9 -22z"/>
<path d="M1093 68 c-2 -18 0 -20 7 -8 12 18 13 30 2 30 -4 0 -9 -10 -9 -22z"/>
<path d="M1573 68 c-2 -18 0 -20 7 -8 12 18 13 30 2 30 -4 0 -9 -10 -9 -22z"/>
<path d="M2053 68 c-2 -18 0 -20 7 -8 12 18 13 30 2 30 -4 0 -9 -10 -9 -22z"/>
<path d="M435 69 c-4 -6 -5 -12 -2 -15 2 -3 7 2 10 11 7 17 1 20 -8 4z"/>
<path d="M915 69 c-4 -6 -5 -12 -2 -15 2 -3 7 2 10 11 7 17 1 20 -8 4z"/>
<path d="M1395 69 c-4 -6 -5 -12 -2 -15 2 -3 7 2 10 11 7 17 1 20 -8 4z"/>
<path d="M1875 69 c-4 -6 -5 -12 -2 -15 2 -3 7 2 10 11 7 17 1 20 -8 4z"/>
<path d="M2115 69 c-4 -6 -5 -12 -2 -15 2 -3 7 2 10 11 7 17 1 20 -8 4z"/>
<path d="M410 51 c0 -6 4 -13 10 -16 6 -3 7 1 4 9 -7 18 -14 21 -14 7z"/>
<path d="M890 51 c0 -6 4 -13 10 -16 6 -3 7 1 4 9 -7 18 -14 21 -14 7z"/>
<path d="M1371 44 c0 -11 3 -14 6 -6 3 7 2 16 -1 19 -3 4 -6 -2 -5 -13z"/>
<path d="M1851 44 c0 -11 3 -14 6 -6 3 7 2 16 -1 19 -3 4 -6 -2 -5 -13z"/>
<path d="M2344 44 c-18 -14 -18 -15 4 -4 12 6 22 13 22 15 0 8 -5 6 -26 -11z"/>
</g>
</svg>
